<?xml version="1.0" standalone="no"?><!DOCTYPE svg PUBLIC "-//W3C//DTD SVG 1.1//EN" "http://www.w3.org/Graphics/SVG/1.1/DTD/svg11.dtd"><svg t="1764601213205" class="icon" viewBox="0 0 1024 1024" version="1.1" xmlns="http://www.w3.org/2000/svg" p-id="13748" xmlns:xlink="http://www.w3.org/1999/xlink" width="200" height="200"><path d="M392.5 734.6H78.3c-18.3 0-33.3-15-33.3-33.3C45 683 60 668 78.3 668h314.2c18.3 0 33.3 15 33.3 33.3 0 18.3-15 33.3-33.3 33.3z m537.8-411.9H616.2c-18.3 0-33.3-15-33.3-33.3 0-18.3 15-33.3 33.3-33.3h314.2c18.3 0 33.3 15 33.3 33.3-0.1 18.4-15.1 33.3-33.4 33.3z m0 411.9h-92.4c-18.3 0-33.3-15-33.3-33.3 0-18.3 15-33.3 33.3-33.3h92.4c18.3 0 33.3 15 33.3 33.3 0 18.3-15 33.3-33.3 33.3zM170.7 322.7H78.3c-18.3 0-33.3-15-33.3-33.3 0-18.3 15-33.3 33.3-33.3h92.4c18.3 0 33.3 15 33.3 33.3 0 18.4-15 33.3-33.3 33.3zM393.4 412.4c-67.8 0-122.9-55.1-122.9-122.9s55.1-122.9 122.9-122.9 122.9 55.1 122.9 122.9-55.1 122.9-122.9 122.9z m0-179.3c-31.1 0-56.4 25.3-56.4 56.4s25.3 56.4 56.4 56.4 56.4-25.3 56.4-56.4-25.3-56.4-56.4-56.4zM628 824.2c-67.8 0-122.9-55.1-122.9-122.9S560.2 578.4 628 578.4s122.9 55.1 122.9 122.9S695.8 824.2 628 824.2z m0-179.3c-31.1 0-56.4 25.3-56.4 56.4 0 31.1 25.3 56.4 56.4 56.4s56.4-25.3 56.4-56.4c0-31.1-25.3-56.4-56.4-56.4z" fill="#2C2C2C" p-id="13749"></path></svg>